<svg xmlns="http://www.w3.org/2000/svg" xmlns:xlink="http://www.w3.org/1999/xlink" width="64" zoomAndPan="magnify" viewBox="0 0 48 48" height="64" preserveAspectRatio="xMidYMid meet" version="1.0"><defs><clipPath id="9ed9375102"><path d="M 0.488281 0 L 47.507812 0 L 47.507812 47.019531 L 0.488281 47.019531 Z M 0.488281 0 " clip-rule="nonzero"/></clipPath><clipPath id="26d81f3ebf"><path d="M 5.550781 3.066406 L 42.320312 3.066406 L 42.320312 44 L 5.550781 44 Z M 5.550781 3.066406 " clip-rule="nonzero"/></clipPath></defs><g clip-path="url(#9ed9375102)"><path fill="#ffffff" d="M 0.464844 0 L 47.527344 0 L 47.527344 47.0625 L 0.464844 47.0625 Z M 0.464844 0 " fill-opacity="1" fill-rule="nonzero"/><path fill="#007cef" d="M 0.464844 0 L 47.527344 0 L 47.527344 47.0625 L 0.464844 47.0625 Z M 0.464844 0 " fill-opacity="1" fill-rule="nonzero"/></g><g clip-path="url(#26d81f3ebf)"><path fill="#ffffff" d="M 26.710938 26.046875 L 41.226562 13.554688 L 41.226562 3.074219 L 5.550781 3.074219 L 5.550781 28.058594 L 14.421875 20.804688 L 14.421875 11.742188 L 30.71875 11.742188 L 5.550781 32.492188 L 5.550781 43.984375 L 19.863281 31.6875 L 31.148438 43.984375 L 42.433594 43.984375 Z M 26.710938 26.046875 " fill-opacity="1" fill-rule="nonzero"/></g></svg>