<?xml version="1.0" encoding="UTF-8" standalone="no"?>
<svg
   width="64"
   zoomAndPan="magnify"
   viewBox="0 0 48 48"
   height="64"
   preserveAspectRatio="xMidYMid meet"
   version="1.0"
   id="svg656"
   sodipodi:docname="DEPUTY_BLUEBLUEv4.svg"
   inkscape:version="1.1.2 (0a00cf5339, 2022-02-04)"
   xmlns:inkscape="http://www.inkscape.org/namespaces/inkscape"
   xmlns:sodipodi="http://sodipodi.sourceforge.net/DTD/sodipodi-0.dtd"
   xmlns="http://www.w3.org/2000/svg"
   xmlns:svg="http://www.w3.org/2000/svg">
  <sodipodi:namedview
     id="namedview658"
     pagecolor="#ffffff"
     bordercolor="#666666"
     borderopacity="1.0"
     inkscape:pageshadow="2"
     inkscape:pageopacity="0.0"
     inkscape:pagecheckerboard="0"
     showgrid="false"
     inkscape:zoom="13.640625"
     inkscape:cx="17.117984"
     inkscape:cy="20.270332"
     inkscape:window-width="1872"
     inkscape:window-height="1082"
     inkscape:window-x="1965"
     inkscape:window-y="77"
     inkscape:window-maximized="0"
     inkscape:current-layer="svg656" />
  <defs
     id="defs640">
    <clipPath
       id="a0a695e887">
      <path
         d="M 0.488281 0 L 47.507812 0 L 47.507812 47.019531 L 0.488281 47.019531 Z M 0.488281 0 "
         clip-rule="nonzero"
         id="path634" />
    </clipPath>
    <clipPath
       id="81656c93c1">
      <path
         d="M 3.691406 2.488281 L 44.320312 2.488281 L 44.320312 44.59375 L 3.691406 44.59375 Z M 3.691406 2.488281 "
         clip-rule="nonzero"
         id="path637" />
    </clipPath>
  </defs>
  <g
     clip-path="url(#a0a695e887)"
     id="g650"
     transform="matrix(1.0208524,0,0,1.0208524,-0.49846257,0)">
    <path
       fill="#ffffff"
       d="M 0.488281,0 H 47.511719 V 47.019531 H 0.488281 Z m 0,0"
       fill-opacity="1"
       fill-rule="nonzero"
       id="path642" />
    <path
       fill="#ffffff"
       d="M 0.488281,0 H 47.511719 V 47.019531 H 0.488281 Z m 0,0"
       fill-opacity="1"
       fill-rule="nonzero"
       id="path644" />
    <path
       fill="#ffffff"
       d="M 0.355469,0 H 47.632812 V 47.273438 H 0.355469 Z m 0,0"
       fill-opacity="1"
       fill-rule="nonzero"
       id="path646" />
    <path
       fill="#142667"
       d="M 0.355469,0 H 47.632812 V 47.273438 H 0.355469 Z m 0,0"
       fill-opacity="1"
       fill-rule="nonzero"
       id="path648" />
  </g>
  <g
     clip-path="url(#81656c93c1)"
     id="g654">
    <path
       fill="#007cef"
       d="M 23.140625 44.777344 L 3.699219 44.777344 L 3.699219 10.738281 L 11.644531 10.65625 L 11.644531 2.488281 L 23.140625 2.488281 C 34.796875 2.488281 44.289062 11.972656 44.289062 23.636719 C 44.289062 35.300781 34.804688 44.777344 23.140625 44.777344 Z M 6.820312 41.652344 L 23.140625 41.652344 C 33.078125 41.652344 41.167969 33.566406 41.167969 23.628906 C 41.167969 13.691406 33.078125 5.613281 23.140625 5.613281 L 14.765625 5.613281 L 14.765625 10.621094 L 22.070312 10.550781 C 25.738281 10.515625 29.15625 11.910156 31.753906 14.480469 C 34.339844 17.054688 35.773438 20.46875 35.773438 24.117188 C 35.773438 31.601562 29.6875 37.6875 22.203125 37.6875 L 11.644531 37.6875 L 11.644531 13.777344 L 6.820312 13.832031 Z M 14.765625 34.5625 L 22.203125 34.5625 C 27.960938 34.5625 32.652344 29.875 32.652344 24.117188 C 32.652344 21.304688 31.554688 18.671875 29.558594 16.695312 C 27.5625 14.722656 24.917969 13.644531 22.105469 13.671875 L 14.765625 13.742188 Z M 14.765625 34.5625 "
       fill-opacity="1"
       fill-rule="nonzero"
       id="path652" />
  </g>
  <path
     style="fill:#a0a0a0;stroke:none;stroke-width:0.0733104"
     d="M 4.9851088,36.92339 V 14.392025 l 1.3745705,-0.04804 c 0.7560137,-0.02642 2.6116838,-0.04824 4.1237117,-0.04849 1.512027,-2.2e-4 3.268728,-0.022 3.90378,-0.04834 l 1.154639,-0.04789 V 8.7825115 3.3657557 l 8.925544,0.027102 c 9.593886,0.029131 9.158808,0.013197 11.438274,0.4189048 7.44158,1.3244789 14.287618,5.8814591 18.514873,12.3241945 3.141048,4.787256 4.735758,10.41142 4.570939,16.120629 -0.120644,4.179016 -1.034221,7.903818 -2.840959,11.583047 C 52.12412,52.03889 44.487275,57.753417 35.5279,59.271178 l -1.083653,0.183576 H 19.714678 4.9851088 Z M 32.747439,55.492307 c 8.518565,-0.698708 16.000035,-5.795526 19.741069,-13.448779 1.725083,-3.529103 2.50975,-7.208341 2.398033,-11.244183 -0.08133,-2.938279 -0.588767,-5.449788 -1.636999,-8.10223 C 49.95773,14.367529 42.27842,8.5219685 33.403261,7.5899445 32.529747,7.4982125 31.173115,7.4776632 25.99063,7.4776632 h -6.343436 v 3.3816768 3.381677 l 1.008018,-0.04615 c 0.55441,-0.02538 3.135853,-0.05107 5.736541,-0.05708 4.968104,-0.01147 5.258701,0.0031 6.927835,0.347118 6.746866,1.390622 12.238845,6.740155 13.845194,13.486088 0.435267,1.827924 0.58839,3.967495 0.416693,5.822429 -0.661438,7.145911 -5.536375,13.265265 -12.355816,15.509865 -0.974299,0.320688 -1.816332,0.523268 -3.092008,0.74389 -0.640439,0.110761 -1.598373,0.127455 -8.655988,0.150849 l -7.935853,0.02631 V 34.264202 18.304076 l -1.924399,0.04827 c -1.058419,0.02655 -2.509965,0.04834 -3.225658,0.04842 l -1.3012604,1.5e-4 V 36.985109 55.569301 H 20.449615 c 7.290307,0 11.695364,-0.02758 12.297824,-0.07699 z m -1.679258,-9.457709 c 4.202772,-0.458473 7.91817,-2.736809 10.233708,-6.275459 2.023219,-3.091923 2.717246,-6.863565 1.946736,-10.57941 C 42.151282,23.887705 37.771941,19.55677 32.431037,18.481708 31.098445,18.213473 30.29725,18.187156 24.870561,18.233375 l -5.223367,0.04449 v 13.917196 13.917198 h 5.35455 c 3.272674,0 5.631335,-0.03019 6.066437,-0.07766 z"
     id="path394"
     transform="scale(0.75)" />
  <path
     style="fill:#a0a0a0;stroke:none;stroke-width:0.0733104"
     d="m 4.9851088,36.956084 v -22.49867 l 0.5681558,-0.04293 c 0.3124857,-0.02361 2.4155785,-0.06061 4.6735394,-0.08222 2.257961,-0.0216 4.377549,-0.05816 4.710195,-0.08124 l 0.604811,-0.04196 v -5.4049397 -5.40494 l 8.045819,0.026009 c 4.4252,0.014305 8.672623,0.056942 9.438717,0.094748 3.227093,0.1592565 6.684325,1.0777716 9.900872,2.6304565 6.445485,3.1113515 11.520399,8.5557062 14.092554,15.1184592 1.240561,3.165241 1.816648,6.034948 1.899133,9.460305 0.117699,4.887622 -0.776409,8.995919 -2.870868,13.191228 -1.361983,2.728121 -2.926353,4.950011 -5.002439,7.105012 -4.186765,4.345912 -9.405081,7.10092 -15.555027,8.21227 l -1.201296,0.217085 H 19.637192 4.9851088 Z M 34.272623,55.361531 c 2.672511,-0.433295 4.7224,-1.061977 6.981919,-2.141291 2.576505,-1.23073 4.634733,-2.693645 6.69291,-4.757081 3.421718,-3.430461 5.759039,-7.87699 6.592212,-12.541051 0.352407,-1.97275 0.471794,-4.681943 0.293988,-6.671249 C 54.348205,23.819662 52.001847,18.728187 48.165644,14.781628 44.672296,11.187788 40.416084,8.8608141 35.549324,7.883983 33.62787,7.4983187 33.183408,7.4791313 26.153494,7.4783689 l -6.5063,-7.057e-4 v 3.4183048 3.418304 l 0.274914,-0.04249 c 0.591564,-0.09143 9.585107,-0.139535 10.94158,-0.05852 6.342066,0.378775 12.056162,4.243107 14.918582,10.089145 0.822524,1.679877 1.310125,3.2185 1.626282,5.13173 0.188087,1.138213 0.188575,4.4297 8.14e-4,5.498282 -0.461786,2.628131 -1.40974,5.03058 -2.82035,7.147766 -1.016852,1.526193 -1.907914,2.537226 -3.272118,3.712671 -2.408164,2.074956 -5.118584,3.387171 -8.396037,4.064833 -1.034825,0.213964 -1.142621,0.221717 -3.523383,0.253375 -1.350745,0.01796 -5.020848,0.04573 -8.155785,0.06171 l -5.699885,0.02905 V 34.233536 18.265246 l -1.667812,0.03291 c -0.917297,0.0181 -2.368844,0.05228 -3.225659,0.07595 l -1.5578466,0.04304 v 18.578159 18.57816 l 12.0778926,-0.02277 12.077892,-0.02277 1.026346,-0.166401 z m -1.906071,-9.488675 c 3.791117,-0.836977 6.810083,-2.877204 8.915996,-6.025456 2.993612,-4.475324 3.05724,-10.668016 0.155954,-15.178442 -2.352025,-3.656528 -6.230407,-6.040571 -10.431777,-6.412419 -0.955723,-0.08459 -5.755739,-0.09879 -9.105236,-0.02694 l -2.254295,0.04836 v 13.920756 13.920756 l 5.919816,-0.0262 5.919817,-0.0262 z"
     id="path433"
     transform="scale(0.75)" />
  <path
     style="fill:#ffffff;stroke-width:0.0733104"
     d="m 4.9851088,36.956084 v -22.49867 l 0.5681558,-0.04294 c 0.3124857,-0.02362 2.3825888,-0.06057 4.6002294,-0.08211 2.21764,-0.02155 4.337228,-0.05822 4.710194,-0.0815 l 0.678122,-0.04232 V 8.8033837 3.3982286 l 8.045819,0.026558 c 4.4252,0.014607 8.672623,0.057458 9.438717,0.095224 2.631204,0.1297114 5.294757,0.7303242 8.025783,1.8097583 9.362333,3.700449 16.12572,12.1377531 17.588589,21.9417091 0.440595,2.952812 0.402952,6.232428 -0.105182,9.163803 -1.401396,8.084505 -6.611639,15.434088 -13.852833,19.540843 -2.813762,1.59579 -5.963339,2.705984 -9.345226,3.294096 l -1.061149,0.184534 H 19.630719 4.9851088 Z M 34.199313,55.37056 c 2.733899,-0.451791 4.747067,-1.061308 6.978327,-2.112797 3.783939,-1.783191 7.090093,-4.589808 9.496789,-8.061887 2.141682,-3.089751 3.536152,-6.68461 4.052357,-10.446735 0.163964,-1.194981 0.2248,-4.058199 0.113882,-5.359877 C 54.256885,22.53824 50.792376,16.357813 45.180999,12.157126 42.129308,9.8726261 38.412357,8.3200297 34.475714,7.6854542 33.494099,7.5272209 33.275312,7.521998 26.556701,7.4964135 l -6.909507,-0.026311 v 3.4163555 3.416355 l 0.423594,-0.04792 c 0.232977,-0.02636 2.880399,-0.05274 5.883161,-0.05862 6.067709,-0.01189 6.045962,-0.01323 8.067038,0.4958 4.346516,1.094711 8.178359,3.854626 10.696542,7.704268 1.087223,1.66208 2.080486,4.026367 2.488676,5.923854 0.373874,1.737969 0.485839,4.380942 0.258993,6.113629 -0.676088,5.164075 -3.586033,9.823894 -7.955839,12.740022 -1.930105,1.288028 -4.086479,2.166451 -6.588496,2.683898 -1.249325,0.258374 -1.494125,0.265062 -11.532547,0.315036 L 15.54181,50.20189 V 34.235461 18.269043 l -1.667812,0.03084 c -0.917297,0.01696 -2.368843,0.05029 -3.225659,0.07405 l -1.5578464,0.04321 v 18.578159 18.57816 l 12.0778924,-0.0227 c 11.956993,-0.02248 12.087432,-0.02428 13.030928,-0.1802 z m -1.830368,-9.49814 c 5.912313,-1.304667 10.24772,-5.907042 11.070196,-11.751884 0.130767,-0.929289 0.150703,-2.963859 0.03694,-3.770021 -0.453573,-3.214151 -1.778609,-5.885496 -4.027099,-8.118853 -2.309968,-2.29442 -5.345168,-3.716112 -8.489876,-3.976671 -0.999965,-0.08285 -5.618671,-0.09596 -8.990678,-0.02551 l -2.321233,0.04849 v 13.920746 13.920746 l 5.919816,-0.0262 5.919817,-0.0262 z"
     id="path1057"
     transform="scale(0.75)" />
</svg>
