<?xml version="1.0" encoding="UTF-8" standalone="no"?>
<!-- Created with Inkscape (http://www.inkscape.org/) -->

<svg
   width="226.06133mm"
   height="122.13775mm"
   viewBox="0 0 226.06133 122.13775"
   version="1.1"
   id="svg5"
   inkscape:version="1.1.2 (0a00cf5339, 2022-02-04)"
   sodipodi:docname="lostCowboy.svg"
   xmlns:inkscape="http://www.inkscape.org/namespaces/inkscape"
   xmlns:sodipodi="http://sodipodi.sourceforge.net/DTD/sodipodi-0.dtd"
   xmlns="http://www.w3.org/2000/svg"
   xmlns:svg="http://www.w3.org/2000/svg">
  <sodipodi:namedview
     id="namedview7"
     pagecolor="#ffffff"
     bordercolor="#666666"
     borderopacity="1.0"
     inkscape:pageshadow="2"
     inkscape:pageopacity="0.0"
     inkscape:pagecheckerboard="0"
     inkscape:document-units="mm"
     showgrid="false"
     inkscape:zoom="0.74475309"
     inkscape:cx="439.74306"
     inkscape:cy="293.38583"
     inkscape:window-width="1920"
     inkscape:window-height="1043"
     inkscape:window-x="1920"
     inkscape:window-y="0"
     inkscape:window-maximized="1"
     inkscape:current-layer="layer1" />
  <defs
     id="defs2" />
  <g
     inkscape:label="Layer 1"
     inkscape:groupmode="layer"
     id="layer1"
     transform="translate(11.262857,-70.634424)">
    <g
       inkscape:label="Layer 1"
       id="layer1-5"
       transform="translate(2.649382,-46.638806)">
      <g
         id="g197"
         transform="matrix(0.26458333,0,0,0.26458333,-47.425157,26.929929)">
        <path
           opacity="0.07"
           fill="#2a94f4"
           d="m 216.861,768.599 c 0,-189.286 153.447,-342.733 342.733,-342.733 189.286,0 342.733,153.447 342.733,342.733"
           id="path9" />
        <g
           opacity="0.2"
           id="g15">
          <g
             id="g13">
            <path
               fill="#2a94f4"
               d="m 224.499,770.302 c 0,0 79.44,-189.446 107.912,-171.925 28.472,17.521 95.727,171.925 95.727,171.925 z"
               id="path11" />
          </g>
        </g>
        <g
           opacity="0.2"
           id="g21">
          <g
             id="g19">
            <path
               fill="#2a94f4"
               d="m 908.92,770.302 c 0,0 -72.622,-181.361 -98.65,-164.587 -26.028,16.773 -87.511,164.587 -87.511,164.587 z"
               id="path17" />
          </g>
        </g>
        <g
           id="g25">
          <path
             fill="#5e349d"
             d="m 574.925,773.586 h -50.373 c -1.815,0 -3.285,-1.472 -3.285,-3.285 0,-1.814 1.47,-3.285 3.285,-3.285 h 50.373 c 1.814,0 3.285,1.471 3.285,3.285 0,1.814 -1.471,3.285 -3.285,3.285 z"
             id="path23" />
        </g>
        <g
           id="g29">
          <path
             fill="#d3d3d3"
             d="m 546.591,513.852 c 0,1.228 -0.996,2.224 -2.224,2.224 -1.228,0 -2.224,-0.996 -2.224,-2.224 0,-1.228 0.996,-2.224 2.224,-2.224 1.228,0 2.224,0.996 2.224,2.224 z"
             id="path27" />
        </g>
        <g
           opacity="0.4"
           id="g33">
          <path
             fill="#d3d3d3"
             d="M 906.013,422.177 H 678.659 c -7.83,0 -14.236,-6.406 -14.236,-14.236 v 0 c 0,-7.83 6.406,-14.236 14.236,-14.236 h 227.355 c 7.83,0 14.236,6.406 14.236,14.236 v 0 c -10e-4,7.83 -6.407,14.236 -14.237,14.236 z"
             id="path31" />
        </g>
        <g
           opacity="0.4"
           id="g37">
          <path
             fill="#d3d3d3"
             d="M 402.144,384.162 H 264.576 c -7.83,0 -14.236,-6.406 -14.236,-14.236 v 0 c 0,-7.83 6.406,-14.236 14.236,-14.236 h 137.567 c 7.83,0 14.236,6.406 14.236,14.236 v 0 c 0,7.83 -6.406,14.236 -14.235,14.236 z"
             id="path35" />
        </g>
        <g
           opacity="0.4"
           id="g41">
          <path
             fill="#d3d3d3"
             d="M 845.123,369.927 H 707.556 c -7.83,0 -14.236,-6.406 -14.236,-14.236 v 0 c 0,-7.83 6.406,-14.236 14.236,-14.236 h 137.567 c 7.83,0 14.236,6.406 14.236,14.236 v 0 c 0,7.829 -6.406,14.236 -14.236,14.236 z"
             id="path39" />
        </g>
        <g
           opacity="0.4"
           id="g45">
          <path
             fill="#d3d3d3"
             d="M 278.466,436.413 H 140.899 c -7.83,0 -14.236,-6.406 -14.236,-14.236 v 0 c 0,-7.83 6.406,-14.236 14.236,-14.236 h 137.567 c 7.83,0 14.236,6.406 14.236,14.236 v 0 c 0,7.83 -6.406,14.236 -14.236,14.236 z"
             id="path43" />
        </g>
        <g
           opacity="0.4"
           id="g49">
          <path
             fill="#d3d3d3"
             d="M 869.087,540 H 731.519 c -7.83,0 -14.236,-6.406 -14.236,-14.236 v 0 c 0,-7.83 6.406,-14.236 14.236,-14.236 h 137.567 c 7.83,0 14.236,6.406 14.236,14.236 v 0 c 10e-4,7.83 -6.406,14.236 -14.235,14.236 z"
             id="path47" />
        </g>
        <g
           opacity="0.4"
           id="g53">
          <path
             fill="#d3d3d3"
             d="M 387.179,554.236 H 212.134 c -6.927,0 -12.594,-5.667 -12.594,-12.594 v -3.283 c 0,-6.927 5.667,-12.595 12.594,-12.595 h 175.045 c 6.927,0 12.595,5.668 12.595,12.595 v 3.283 c 0,6.926 -5.668,12.594 -12.595,12.594 z"
             id="path51" />
        </g>
        <path
           fill="#d3d3d3"
           d="m 981.068,783.595 c 0,10.76 -8.723,19.483 -19.483,19.483 H 180.092 c -10.76,0 -19.483,-8.723 -19.483,-19.483 v 0 c 0,-10.76 8.723,-19.483 19.483,-19.483 h 781.494 c 10.76,0 19.482,8.723 19.482,19.483 z"
           id="path55" />
        <path
           opacity="0.4"
           fill="#2a94f4"
           d="m 263.498,683.959 c 0,0 -15.523,54.903 22.55,56.774 38.073,1.871 32.149,-36.304 25.534,-51.27 -6.615,-14.966 43.571,-67.686 -11.034,-96.142 -54.604,-28.454 -73.625,77.502 -37.05,90.638 z"
           id="path57" />
        <path
           opacity="0.4"
           fill="#2a94f4"
           d="m 198.031,705.404 c 0,0 -11.147,31.814 11.237,34.299 22.384,2.486 20.277,-20.242 16.919,-29.308 -3.358,-9.066 28.152,-38.334 -3.017,-57.097 -31.169,-18.763 -46.231,43.031 -25.139,52.106 z"
           id="path59" />
        <line
           fill="none"
           stroke="#4d4d4d"
           stroke-miterlimit="10"
           x1="211.073"
           y1="676.203"
           x2="211.44"
           y2="767.01599"
           id="line61" />
        <polyline
           fill="none"
           stroke="#4d4d4d"
           stroke-miterlimit="10"
           points="221.062,697.781 211.209,709.943 200.768,699.078 "
           id="polyline63" />
        <line
           fill="none"
           stroke="#4d4d4d"
           stroke-miterlimit="10"
           x1="283.103"
           y1="626.50897"
           x2="284.52499"
           y2="764.112"
           id="line65" />
        <polyline
           fill="none"
           stroke="#4d4d4d"
           stroke-miterlimit="10"
           points="300.345,644.196 283.447,659.779 268.141,645.477 "
           id="polyline67" />
        <polyline
           fill="none"
           stroke="#4d4d4d"
           stroke-miterlimit="10"
           points="300.252,673.124 283.354,688.708 268.048,674.405 "
           id="polyline69" />
        <path
           opacity="0.4"
           fill="#2a94f4"
           d="m 891.105,683.959 c 0,0 -15.523,54.903 22.55,56.774 38.073,1.871 32.149,-36.304 25.534,-51.27 -6.615,-14.966 43.571,-67.686 -11.034,-96.142 -54.604,-28.454 -73.625,77.502 -37.05,90.638 z"
           id="path71" />
        <path
           opacity="0.4"
           fill="#2a94f4"
           d="m 825.638,705.404 c 0,0 -11.147,31.814 11.237,34.299 22.384,2.486 20.277,-20.242 16.919,-29.308 -3.358,-9.066 28.152,-38.334 -3.017,-57.097 -31.169,-18.763 -46.231,43.031 -25.139,52.106 z"
           id="path73" />
        <line
           fill="none"
           stroke="#4d4d4d"
           stroke-miterlimit="10"
           x1="838.67902"
           y1="676.203"
           x2="839.047"
           y2="767.01599"
           id="line75" />
        <polyline
           fill="none"
           stroke="#4d4d4d"
           stroke-miterlimit="10"
           points="848.668,697.781 838.816,709.943 828.375,699.078 "
           id="polyline77" />
        <line
           fill="none"
           stroke="#4d4d4d"
           stroke-miterlimit="10"
           x1="910.70898"
           y1="626.50897"
           x2="912.13202"
           y2="764.112"
           id="line79" />
        <polyline
           fill="none"
           stroke="#4d4d4d"
           stroke-miterlimit="10"
           points="927.951,644.196 911.053,659.779 895.748,645.477 "
           id="polyline81" />
        <polyline
           fill="none"
           stroke="#4d4d4d"
           stroke-miterlimit="10"
           points="927.858,673.124 910.96,688.708 895.655,674.405 "
           id="polyline83" />
        <g
           id="g125">
          <g
             id="g121">
            <polygon
               fill="#fab9af"
               points="534.768,638.438 587.396,638.962 577.079,566.468 549.245,562.648 "
               id="polygon85" />
            <path
               fill="#0e538c"
               d="m 565.882,751.291 0.03,8.171 c 0.006,1.662 -0.22,3.317 -0.671,4.917 l -0.71,2.517 c -0.583,2.066 0.97,4.117 3.117,4.109 5.565,-0.02 15.077,-0.005 17.529,-10e-4 0.401,10e-4 0.794,-0.27 0.829,-0.67 0.207,-2.386 -6.684,-3.983 -11.874,-5.992 -3.953,-1.53 -3.742,-8.636 -3.255,-12.785 0.184,-1.568 -1.123,-2.902 -2.696,-2.771 v 0 c -1.303,0.108 -2.303,1.199 -2.299,2.505 z"
               id="path87" />
            <path
               fill="#0e538c"
               d="m 527.632,748.999 -2.816,9.348 c -0.124,0.413 -0.31,0.805 -0.551,1.163 l -1.996,2.964 c -1.267,1.882 -0.355,4.452 1.815,5.114 0,0 4.024,1.416 8.173,2.779 4.247,1.395 9.588,0.229 9.588,-0.891 0,-2.49 -2.321,-0.514 -6.209,-3.114 -1.303,-0.871 -2.648,-1.783 -3.847,-2.724 -3.346,-2.627 -0.424,-9.277 1.624,-13.023 0.737,-1.347 -0.045,-3.019 -1.547,-3.339 l -0.97,-0.207 c -1.424,-0.304 -2.844,0.536 -3.264,1.93 z"
               id="path89" />
            <path
               fill="#ffbe55"
               d="m 556.39,639.663 30.843,-2.589 c 0,0 3.106,22.448 -4.689,63.085 -3.656,19.056 -11.274,55.471 -11.274,55.471 -1.888,0.826 -3.808,1.034 -5.763,0.546 0,0 -0.579,-16.063 -0.932,-33.361 -0.339,-16.59 -0.431,-34.317 -1.488,-40.117 -2.16,-11.847 -6.697,-43.035 -6.697,-43.035 z"
               id="path91" />
            <path
               opacity="0.07"
               d="m 556.39,639.663 30.843,-2.589 c 0,0 3.106,22.448 -4.689,63.085 -3.656,19.056 -11.274,55.471 -11.274,55.471 -1.888,0.826 -3.808,1.034 -5.763,0.546 0,0 -0.579,-16.063 -0.932,-33.361 -0.339,-16.59 -0.431,-34.317 -1.488,-40.117 -2.16,-11.847 -6.697,-43.035 -6.697,-43.035 z"
               id="path93" />
            <path
               fill="#ffbe55"
               d="m 562.757,640.054 c 3.184,17.09 10.298,42.645 -3.405,66.653 -13.703,24.007 -28.094,48.966 -28.094,48.966 -1.854,0.076 -3.536,-0.597 -5.099,-1.783 0,0 2.403,-10.884 5.876,-23.592 3.973,-14.538 9.006,-31.639 7.572,-40.555 -2.687,-16.71 -5.774,-38.964 -4.838,-49.772 0.935,-10.806 26.313,-8.903 27.988,0.083 z"
               id="path95" />
            <path
               opacity="0.07"
               d="m 562.757,640.054 c 3.184,17.09 10.298,42.645 -3.405,66.653 -13.703,24.007 -28.094,48.966 -28.094,48.966 -1.854,0.076 -3.536,-0.597 -5.099,-1.783 0,0 2.403,-10.884 5.876,-23.592 3.973,-14.538 9.006,-31.639 7.572,-40.555 -2.687,-16.71 -5.774,-38.964 -4.838,-49.772 0.935,-10.806 26.313,-8.903 27.988,0.083 z"
               id="path97" />
            <path
               fill="#ffffff"
               d="m 588.462,637.116 -11.382,-70.647 -27.834,-3.82 -14.959,74.599 c -0.281,1.402 0.627,2.763 2.032,3.03 5.182,0.982 17.682,3.034 31.671,3.034 10.443,0 16.312,-2.031 18.982,-3.316 1.081,-0.523 1.681,-1.695 1.49,-2.88 z"
               id="path99" />
            <path
               fill="#ffbe55"
               d="m 557.941,567.048 c 0,5.089 -0.925,10.13 -2.663,14.913 -3.401,9.358 -8.502,27.052 -5.471,42.642 4.365,22.449 9.977,31.524 2.702,36.755 -7.275,5.232 -21.228,-3.498 -21.63,-6.408 -0.403,-2.91 2.715,-38.658 6.249,-54.145 3.534,-15.487 13.431,-37.752 13.431,-37.752 l 4.193,0.448 c 1.813,0.194 3.189,1.724 3.189,3.547 z"
               id="path101" />
            <path
               fill="#ffbe55"
               d="m 569.528,565.432 c 0,0 4.827,10.433 3.144,25.422 -1.684,14.989 -5.585,60.633 8.055,67.525 4.319,2.183 14.183,-7.483 14.183,-11.068 0,-3.586 -3.292,-15.589 -6.411,-26.502 -3.119,-10.913 -10.637,-54.234 -10.637,-54.234 z"
               id="path103" />
            <g
               id="g111">
              <path
                 fill="#fab9af"
                 d="m 565.642,533.098 c -6.212,0 -8.53,4.422 -8.648,12.602 -0.044,3.063 1.334,6.099 2.443,8.037 0.824,1.44 1.05,3.145 0.58,4.736 l -1.364,4.617 c -0.927,4.283 1.107,6.632 4.109,7.485 1.487,0.422 3.27,0.095 4.568,-0.744 1.544,-0.998 1.671,-3.144 1.384,-4.961 l -0.352,-1.316 c -0.475,-1.773 0.553,-3.685 2.347,-4.077 4.783,-1.046 5.468,-6.032 6.75,-13.776 1.335,-8.072 -5.605,-12.603 -11.817,-12.603 z"
                 id="path105" />
              <path
                 fill="#0e538c"
                 d="m 565.413,528.551 c -4.308,0 -11.424,2.433 -10.525,8.65 l 0.794,4.397 c 0.317,1.756 1.782,3.071 3.56,3.223 v 0 c 0.165,0.608 0.716,1.03 1.346,1.03 0.77,0 1.394,-0.624 1.394,-1.394 v 0 c 0,-1.983 1.392,-3.675 3.327,-4.11 2.373,-0.533 4.908,-0.66 7.561,0.053 4.866,1.307 10.642,-6.75 10.65,-6.831 0,0 -2.464,1.886 -7.338,0.096 -4.873,-1.79 -2.841,-5.355 -10.769,-5.114 z"
                 id="path107" />
              <path
                 fill="#fab9af"
                 d="m 560.418,545.851 c 0,1.897 -0.706,3.434 -2.532,3.434 -1.826,0 -2.998,-2.608 -2.998,-4.505 0,-1.897 1.172,-2.363 2.998,-2.363 1.826,0 2.532,1.537 2.532,3.434 z"
                 id="path109" />
            </g>
            <path
               fill="#ffbe55"
               d="m 551.007,542.954 c 0,0 -0.659,1.556 -2.231,3.745 -0.783,1.099 -1.8,2.35 -3.048,3.69 -1.231,1.359 -2.622,2.88 -4.162,4.507 -1.528,1.638 -3.214,3.375 -4.909,5.279 -1.712,1.885 -3.396,3.975 -4.968,6.211 -1.534,2.255 -3.023,4.632 -4.14,7.061 -0.545,1.211 -1.017,2.435 -1.289,3.572 -0.283,1.129 -0.363,2.192 -0.219,2.836 0.072,0.318 0.178,0.526 0.274,0.645 0.111,0.109 0.22,0.153 0.353,0.243 0.273,0.16 0.868,0.487 1.842,0.678 l 0.546,0.136 c 0.083,0.018 0.2,0.055 0.255,0.058 l 0.158,0.007 0.629,0.048 0.735,0.032 0.703,-0.047 c 0.915,-0.127 1.713,-0.399 2.399,-0.785 1.366,-0.78 2.364,-1.756 3.587,-2.74 1.195,-1.013 2.516,-2.174 3.722,-3.49 2.412,-2.636 4.479,-5.61 6.025,-7.849 0.8,-1.177 1.429,-2.101 1.858,-2.731 0.456,-0.661 0.734,-1.029 0.734,-1.029 l 1.399,0.045 c 0,0 0.239,0.39 0.621,1.151 0.351,0.759 0.849,1.898 1.236,3.406 0.769,2.99 1.258,7.587 -0.604,13.037 -0.946,2.69 -2.485,5.637 -5.124,8.182 -1.326,1.256 -2.923,2.39 -4.757,3.242 -1.827,0.861 -3.889,1.406 -5.984,1.625 -4.211,0.421 -8.454,-0.523 -11.827,-2.107 -0.891,-0.399 -1.927,-0.899 -2.895,-1.53 -0.985,-0.674 -1.979,-1.443 -2.85,-2.511 -0.871,-1.039 -1.576,-2.299 -2.012,-3.608 -0.42,-1.311 -0.568,-2.616 -0.552,-3.814 0.059,-2.403 0.692,-4.347 1.403,-6.067 0.723,-1.723 1.594,-3.212 2.497,-4.614 1.808,-2.791 3.764,-5.209 5.74,-7.436 1.953,-2.239 3.89,-4.303 5.708,-6.264 1.837,-1.942 3.599,-3.739 5.305,-5.311 1.698,-1.58 3.33,-2.94 4.811,-4.102 1.463,-1.182 2.843,-2.092 4.049,-2.757 2.406,-1.338 4.087,-1.72 4.087,-1.72 z"
               id="path113" />
            <path
               fill="#ffbe55"
               d="m 599.345,643.368 c 0,0 -0.934,-1.232 -1.702,-3.467 -0.408,-1.115 -0.68,-2.492 -1.011,-4.068 -0.307,-1.579 -0.622,-3.362 -0.888,-5.316 -0.284,-1.951 -0.558,-4.069 -0.964,-6.29 -0.409,-2.22 -0.962,-4.541 -1.525,-6.929 -0.581,-2.385 -1.246,-4.832 -1.967,-7.266 -0.342,-1.229 -0.762,-2.416 -1.125,-3.627 -0.404,-1.183 -0.776,-2.308 -1.254,-3.583 -0.443,-1.205 -0.921,-2.414 -1.395,-3.6 -0.514,-1.173 -1.025,-2.333 -1.578,-3.45 -1.089,-2.243 -2.239,-4.351 -3.191,-6.394 -0.973,-2.039 -1.795,-4.006 -2.579,-5.888 -0.81,-1.863 -1.584,-3.631 -2.365,-5.268 -0.784,-1.632 -1.529,-3.168 -2.254,-4.536 -0.724,-1.366 -1.373,-2.617 -1.95,-3.645 -0.579,-1.069 -1.034,-1.908 -1.345,-2.481 -0.319,-0.588 -0.48,-0.929 -0.48,-0.929 l 0.692,-0.981 c 0,0 0.373,0.048 1.054,0.19 0.35,0.059 0.759,0.167 1.238,0.307 0.483,0.135 1.047,0.288 1.644,0.519 1.214,0.434 2.653,1.067 4.208,1.976 1.55,0.91 3.246,2.075 4.897,3.572 1.653,1.49 3.319,3.267 4.807,5.323 1.503,2.042 2.865,4.346 3.86,6.855 1.037,2.496 1.678,5.191 2.242,7.88 0.524,2.654 1.056,5.35 1.588,8.047 0.248,1.267 0.498,2.711 0.734,4.081 0.191,1.362 0.378,2.727 0.508,4.057 0.295,2.669 0.489,5.27 0.685,7.779 0.221,2.504 0.353,4.924 0.567,7.203 0.215,2.279 0.494,4.419 0.698,6.402 0.223,1.98 0.336,3.805 0.393,5.426 0.037,1.624 0.072,3.038 -0.092,4.223 -0.276,2.363 -0.957,3.762 -0.957,3.762 z"
               id="path115" />
            <path
               fill="#fab9af"
               d="m 558.623,542.232 c -1.669,0.849 -3.25,1.884 -3.946,2.152 -0.29,0.112 -1.157,0.175 -1.407,0.211 -0.734,0.105 -1.887,0.152 -2.454,0.63 l -2.418,1.969 c -1.153,0.971 -2.496,1.15 -3.467,-0.002 v 0 c -1.052,-1.248 -0.464,-2.713 0.897,-3.613 l 1.669,-1.406 c 1.09,-0.721 1.75,-1.863 2.458,-2.961 1.44,-2.234 4.155,-3.673 6.44,-4.624 1.434,-0.597 3.342,0.262 5.819,1.544 1.217,0.63 2.916,1.97 1.227,2.329 -1.415,0.301 -5.291,-1.393 -7.633,2.064 -0.115,0.17 -0.379,0.627 -0.223,0.824 0.466,0.588 1.828,-0.38 2.681,-0.628 1.197,-0.349 2.065,-0.035 2.287,0.417 0.238,0.478 -0.738,0.487 -1.93,1.094 z"
               id="path117" />
            <path
               fill="#fab9af"
               d="m 597.181,651.546 c 0.037,-1.873 -0.132,-3.754 -0.04,-4.494 0.038,-0.309 0.39,-1.103 0.477,-1.34 0.253,-0.697 0.755,-1.736 0.6,-2.462 l -0.598,-3.06 c -0.314,-1.474 0.161,-2.744 1.635,-3.057 v 0 c 1.596,-0.34 2.612,0.868 2.765,2.493 l 0.454,2.135 c 0.123,1.301 0.819,2.421 1.454,3.563 1.292,2.323 1.283,5.395 1.045,7.859 -0.149,1.546 -1.805,2.825 -4.102,4.406 -1.129,0.777 -3.111,1.644 -2.633,-0.014 0.401,-1.39 3.72,-4.011 1.773,-7.706 -0.096,-0.182 -0.375,-0.63 -0.622,-0.585 -0.739,0.134 -0.526,1.792 -0.709,2.661 -0.256,1.22 -0.942,1.838 -1.445,1.822 -0.532,-0.019 -0.08,-0.884 -0.054,-2.221 z"
               id="path119" />
          </g>
          <path
             fill="#e8948b"
             d="m 559.663,554.176 c 0,0 4.64,6.378 10.413,5.514 0,0 -1.199,0.573 -1.49,1.505 -10e-4,0 -5.484,-0.405 -8.923,-7.019 z"
             id="path123" />
        </g>
        <g
           id="g129">
          <path
             fill="#ffbe55"
             d="m 564.661,504.723 c 0.164,-0.666 0.61,-0.936 1.275,-0.773 l 4.815,1.183 c 0.667,0.164 0.938,0.61 0.773,1.276 l -1.157,4.713 c -0.164,0.666 -0.61,0.937 -1.277,0.773 l -4.815,-1.183 c -0.665,-0.164 -0.936,-0.61 -0.771,-1.276 z m 15.726,-33.507 c 4.764,1.17 6.748,4.374 5.565,9.188 l -2.479,10.092 c -0.138,0.563 -0.38,0.884 -0.878,1.142 l -8.041,4.652 c -0.446,0.271 -0.688,0.591 -0.826,1.155 l -0.554,2.253 c -0.163,0.667 -0.609,0.937 -1.276,0.773 l -4.815,-1.183 c -0.665,-0.164 -0.936,-0.61 -0.772,-1.276 l 1.107,-4.507 c 0.126,-0.513 0.367,-0.833 0.813,-1.104 l 8.666,-5.205 1.736,-7.07 c 0.327,-1.332 -0.266,-2.237 -1.547,-2.552 l -2.458,-0.604 c -1.384,-0.34 -2.225,0.214 -2.552,1.546 l -0.981,3.996 c -0.126,0.512 -0.509,0.744 -1.021,0.618 l -5.328,-1.309 c -0.563,-0.138 -0.744,-0.508 -0.618,-1.021 l 1.334,-5.43 c 1.183,-4.815 4.373,-6.747 9.188,-5.564 z"
             id="path127" />
        </g>
      </g>
      <g
         id="g10793"
         transform="matrix(0.11294037,0.0343923,-0.0343923,0.11294037,95.615279,113.2089)"
         fill-rule="evenodd"
         style="fill:#b9a165;fill-opacity:1">
        <path
           id="path10779"
           sodipodi:nodetypes="cccccccccccccccccc"
           fill="#b9a165"
           d="m 218.4,386.87 c -6.11,0.36 -7.66,7.39 -10.72,11.5 -2.92,4.87 -10.35,3.85 -12.56,-1.09 -2.34,-3.87 -5,-9.83 -10.57,-8.63 -5.34,1.78 -6.03,9.2 -7.33,13.98 -1.69,4.1 0.09,10.65 -2.69,12.53 -8.01,-2.51 -16.27,-6.19 -24.54,-7.97 -7.51,-2.12 -15.96,-4.69 -21.95,1.68 -5.14,5.45 -2.47,14.35 3.84,17.74 13.18,8.23 27.58,11.56 42.62,14.84 20.73,3.89 40.73,5.76 61.1,-1 6.51,-1.97 12.25,-5.35 18.44,-7.96 8.41,-4.63 17.49,-11.27 18.85,-21.44 0.92,-6.61 -4.04,-11.65 -10.34,-11.87 -5.5,-0.33 -11.54,0.29 -16,3.82 -6.2,3.78 -12.7,7.04 -19.4,9.84 -0.43,-8.15 -1.01,-16.89 -5.53,-23.94 -0.8,-1.01 -1.89,-1.91 -3.22,-2.03 z"
           style="fill:#b9a165;fill-opacity:1" />
        <path
           id="path10785"
           sodipodi:nodetypes="cccccc"
           fill-opacity="0.082353"
           d="m 180.12,392.38 c -2.41,7.41 -3.58,13.95 -5,22.24 0.13,0.88 -30.12,-8.87 -34.37,-9.5 19.37,8.26 13.13,16.26 21.5,21.63 3.87,3.63 18.75,2 20.37,0.75 -2.37,-2.75 3.13,-33.5 -2.5,-35.12 z"
           style="fill:#b9a165;fill-opacity:1" />
        <path
           id="path10787"
           sodipodi:nodetypes="cccccc"
           fill-opacity="0.082353"
           d="m 179.49,394.58 c -2.41,7.42 -3.08,11.71 -4.5,20 0.13,0.87 -27.62,-8.38 -31.87,-9 19.37,8.25 11,13.5 19.37,18.87 3.88,3.63 17.13,3.13 18.75,1.88 -2.37,-2.75 3.88,-30.13 -1.75,-31.75 z"
           style="fill:#b9a165;fill-opacity:1" />
        <path
           id="path10789"
           sodipodi:nodetypes="cccc"
           fill-opacity="0.082353"
           d="m 245.82,403.72 c 17.12,-10.7 27.17,-1.16 27.42,8.92 -2.39,5.77 -2.72,6.1 -4.78,7.84 1.85,-12.52 -15.46,-15.56 -22.64,-16.76 z"
           style="fill:#b9a165;fill-opacity:1" />
        <path
           id="path10791"
           sodipodi:nodetypes="cccc"
           fill-opacity="0.082353"
           d="m 247.89,402.15 c 17.12,-10.7 24.99,0.26 25.25,10.34 -2.4,5.77 -1.42,4.57 -3.49,6.31 1.31,-13.93 -13.16,-16.97 -21.76,-16.65 z"
           style="fill:#b9a165;fill-opacity:1" />
        <path
           id="path10562"
           d="m 218.53,386.22 c -6.1,0.35 -7.66,7.39 -10.72,11.5 -2.92,4.87 -10.35,3.84 -12.56,-1.1 -2.34,-3.86 -4.99,-9.82 -10.56,-8.62 -5.35,1.78 -6.41,8.25 -7.72,13.03 -1.69,4.1 -0.29,11.59 -3.06,13.47 -8.02,-2.5 -15.51,-6.56 -23.79,-8.34 -7.5,-2.12 -17.09,-3.74 -23.09,2.62 -5.13,5.45 -2.65,14.73 3.66,18.13 13.18,8.22 28.52,12.12 43.56,15.4 20.73,3.9 42.82,5.95 63.19,-0.81 6.5,-1.97 11.68,-6.48 17.87,-9.09 8.41,-4.63 17.49,-11.46 18.85,-21.63 0.92,-6.62 -5.18,-12.03 -11.47,-12.25 -5.51,-0.34 -11.55,0.28 -16,3.81 -6.2,3.78 -12.71,7.05 -19.41,9.85 -0.42,-8.15 -1.01,-16.89 -5.53,-23.94 -0.79,-1.01 -1.89,-1.91 -3.22,-2.03 z m -1.22,2 c 6.83,0.93 6.09,9.35 7.41,14.87 -0.01,4.01 3.57,17.47 -1.13,18.75 -15.53,9.69 -33.85,11.07 -45.5,2.04 -4.78,-1.23 -0.82,-17.58 -0.15,-22.63 1.32,-4.52 1.54,-10.61 7,-11.69 6.04,-0.02 7.68,6.54 11.31,9.97 3.72,4.21 10.91,3.55 13.19,-1.31 2.26,-3.49 3.57,-8.45 7.87,-10 z m 1.88,7.59 c -2.76,-0.31 -4.78,2.72 -6.63,4.47 -2.38,2.69 -3.8,5.46 -3.28,9.88 0.92,-3.96 1.7,-5.53 3.66,-8.16 1.24,-1.52 2.89,-3.31 4.68,-4.09 2.07,-0.94 3.38,2.2 3.94,3.9 1.69,0.86 0.42,-3.47 -0.31,-4.03 -0.49,-0.53 -1.34,-1.87 -2.06,-1.97 z m 40.5,3.6 c 6.04,-0.61 11.96,3.03 11.97,9.84 -0.25,9.67 -7.15,16.52 -14.82,21.13 -4.5,2.37 -9.97,3.62 -14.22,6.43 -17.32,8.49 -35.54,8.5 -54.24,6.31 -18.44,-2.65 -37.39,-7.15 -53.91,-16 -5.4,-2.47 -10.1,-7.69 -8.06,-13.93 2.38,-7.58 11.54,-8.19 18.31,-6.63 9.39,1.74 17.69,4.56 26.47,8.19 7.41,-0.55 -0.05,8.58 6.65,10.31 11.38,8.68 27.52,7.42 39.97,1.85 4.8,-2.24 10.79,-5.15 9.53,-11.35 0.4,-4.58 8.19,-4.37 11.6,-7.25 4.42,-1.82 8.48,-5.77 12.84,-7.59 2.57,-0.74 5.23,-1.24 7.91,-1.31 z"
           style="fill:#b9a165;fill-opacity:1" />
        <path
           id="path10783"
           sodipodi:nodetypes="cccc"
           fill-opacity="0.082353"
           d="m 221.96,400.76 c 0,-0.25 -2.63,-5.25 -4.13,-4.75 -1.5,0.5 -9.25,10.62 -8.5,13 0.75,2.37 13,1 12.63,-8.25 z"
           style="fill:#b9a165;fill-opacity:1" />
        <path
           id="path10781"
           sodipodi:nodetypes="cccc"
           fill-opacity="0.082353"
           d="m 220.88,400 c -0.26,-1 -1.76,-4.62 -3.26,-4.12 -1.5,0.5 -8.62,9.12 -7.87,11.5 0.75,2.37 11.5,1.87 11.13,-7.38 z"
           style="fill:#b9a165;fill-opacity:1" />
      </g>
    </g>
  </g>
</svg>
